<svg xmlns="http://www.w3.org/2000/svg" id="Layer_1" viewBox="0 0 841.89 595.28"><defs><style>.st0{fill:#fff}</style></defs><path d="M535.87 335.76V227.07h28.4v108.69zM482.58 227.14c-16.14-.15-31.81 0-47.95 0v24.67h47.95c7.76 0 11.79 7.6 11.79 15.36S490.03 283 482.58 283h-47.95v52.76h28.4v-28.09h19.55c25.76 0 38.95-19.86 38.95-39.72.47-20.48-12.88-40.81-38.95-40.81M371.54 251.76h48.79v-24.74s-41.02.06-44.54.06c-21.66 0-41.21 11.43-41.21 34s19.39 29.25 38.78 30.44c7.73.45 19.54.89 19.54 10.84 0 5.71-6.14 8.7-11.45 8.7h-46.88v24.74s39.08-.03 42.42-.03c21.66 0 43.33-11.43 43.33-33.26 0-25.24-19.69-30.44-42.27-32.37-10.15-1.04-16.21-2.67-16.21-9.65 0-5.73 4.91-8.73 9.69-8.73ZM634.26 251.86h31.29v-24.74h-31.6c-27.72.08-55.38 17.88-55.38 54.47s26.95 53.62 54.3 54.16 32.68.01 32.68.01v-24.74h-31.43c-16.6 0-27.15-14.21-27.15-29.58 0-17.65 10.84-29.58 27.29-29.58M755.45 300.92h-55.73c2.26 8.26 8.91 13.06 18.81 13.06 7.5 0 12.45-2.25 17.68-7.06l14.15 15.62c-7.36 8.71-18.11 13.22-32.67 13.22-27.3 0-44.98-17.87-44.98-42.2s17.96-41.9 42.15-41.9c22.63 0 41.02 15.32 41.02 42.2 0 2.1-.28 4.81-.42 7.06ZM730.01 283c-2.16-6.87-7.65-11.07-15.01-11.07s-12.74 4.2-14.97 11.07h29.99ZM341.92 362.22c-1.74-.18-2.77-.47-2.77-1.68 0-1.37 1.4-1.66 2.46-1.66 1.27 0 2.43.52 2.46 1.76h4.43c.08-3.94-3.47-5.93-6.97-5.93-3.7 0-7.04 1.99-7.04 5.93s3.31 5.1 6.63 5.31c1.32.08 3.34.16 3.34 1.89 0 1.09-1.42 1.71-2.77 1.71-1.45 0-2.87-.62-2.87-1.86h-4.51c-.08 4.07 3.6 5.98 7.43 5.98s7.41-1.99 7.41-5.8c0-4.4-3.37-5.31-7.23-5.65M360.41 354.76c-4.71 0-9.35 3.16-9.35 9.43s4.48 9.4 9.27 9.4c5.49 0 9.32-3.86 9.32-9.4 0-6.27-4.61-9.43-9.25-9.43Zm-.05 14.35c-2.33 0-4.56-1.68-4.56-4.92s2.25-4.92 4.61-4.92 4.51 1.68 4.51 4.92-2.3 4.92-4.56 4.92M382.44 367.17c0 1.5-1.35 2.15-2.62 2.15-1.35 0-2.67-.65-2.67-2.15v-12.04h-4.74v12.15c0 4.07 3.55 6.22 7.38 6.22s7.33-2.15 7.33-6.22v-12.15h-4.69v12.04ZM389.41 359.27h4.45v13.98h4.59v-13.98h4.43v-4.14h-13.47zM438 355.1c-2.69-.03-5.31 0-8 0v18.13h4.74v-4.69H438c4.3 0 6.5-3.31 6.5-6.63.08-3.42-2.15-6.81-6.5-6.81m0 9.32h-3.34v-5.2H438c1.29 0 1.97 1.27 1.97 2.56s-.73 2.64-1.97 2.64M452.12 354.94l-8.31 17.66v.65h4.95l1.04-2.25h6.79l1.06 2.25h4.9v-.65l-8.24-17.66h-2.18Zm-.81 12.1 1.86-4.38 1.89 4.38zM472.08 369.11c-2.77 0-4.53-2.3-4.53-4.92 0-3 1.79-4.97 4.53-4.97 1.94 0 3.31.72 3.96 2.59h4.56c-.7-4.84-4.79-6.86-8.52-6.86-4.64 0-9.27 3.03-9.27 9.27s4.64 9.22 9.27 9.22c3.86 0 7.87-2.05 8.57-7.2h-4.56c-.49 1.97-2.05 2.87-4.01 2.87M484.04 355.13h4.74v18.13h-4.74zM539.05 355.13h4.74v18.13h-4.74zM506.03 355.13h4.74v18.13h-4.74zM491.82 373.25h4.74v-5.85h5.8v-4.14h-5.8v-4.02h6.57v-4.11h-11.31zM523.06 369.11c-2.77 0-4.53-2.3-4.53-4.92 0-3 1.79-4.97 4.53-4.97 1.94 0 3.31.72 3.96 2.59h4.56c-.7-4.84-4.79-6.86-8.52-6.86-4.64 0-9.27 3.03-9.27 9.27s4.64 9.22 9.27 9.22c3.86 0 7.87-2.05 8.57-7.2h-4.56c-.49 1.97-2.05 2.87-4.01 2.87M554.7 362.22c-1.74-.18-2.77-.47-2.77-1.68 0-1.37 1.4-1.66 2.46-1.66 1.27 0 2.43.52 2.46 1.76h4.43c.08-3.94-3.47-5.93-6.97-5.93-3.7 0-7.04 1.99-7.04 5.93s3.31 5.1 6.63 5.31c1.32.08 3.34.16 3.34 1.89 0 1.09-1.42 1.71-2.77 1.71-1.45 0-2.87-.62-2.87-1.86h-4.51c-.08 4.07 3.6 5.98 7.43 5.98s7.41-1.99 7.41-5.8c0-4.4-3.37-5.31-7.23-5.65M573.19 354.76c-4.71 0-9.35 3.16-9.35 9.43s4.48 9.4 9.27 9.4c5.49 0 9.32-3.86 9.32-9.4 0-6.27-4.61-9.43-9.25-9.43Zm-.05 14.35c-2.33 0-4.56-1.68-4.56-4.92s2.25-4.92 4.61-4.92 4.51 1.68 4.51 4.92-2.3 4.92-4.56 4.92M583.62 359.27h4.46v13.98h4.58v-13.98h4.43v-4.14h-13.47zM607.6 354.76c-4.71 0-9.35 3.16-9.35 9.43s4.48 9.4 9.27 9.4c5.49 0 9.32-3.86 9.32-9.4 0-6.27-4.61-9.43-9.25-9.43Zm-.05 14.35c-2.33 0-4.56-1.68-4.56-4.92s2.25-4.92 4.61-4.92 4.51 1.68 4.51 4.92-2.3 4.92-4.56 4.92M627.8 355.1c-2.69-.03-5.31 0-8 0v18.13h4.74v-4.69h3.26c4.3 0 6.5-3.31 6.5-6.63.08-3.42-2.15-6.81-6.5-6.81m0 9.32h-3.34v-5.2h3.34c1.29 0 1.97 1.27 1.97 2.56s-.73 2.64-1.97 2.64M641.55 365.98h6.06v-4.15h-6.06v-2.59h6.58v-4.11h-11.32v18.12h11.55v-4.32h-6.81zM666.15 369.11c-2.77 0-4.53-2.3-4.53-4.92 0-3 1.79-4.97 4.53-4.97 1.94 0 3.31.72 3.96 2.59h4.56c-.7-4.84-4.79-6.86-8.52-6.86-4.64 0-9.27 3.03-9.27 9.27s4.64 9.22 9.27 9.22c3.86 0 7.87-2.05 8.57-7.2h-4.56c-.49 1.97-2.05 2.87-4.01 2.87M682.23 365.98h6.06v-4.15h-6.06v-2.59h6.58v-4.11h-11.32v18.12h11.55v-4.32h-6.81zM703.23 363.98l-9.45-8.93h-1.48v18.2h4.74v-9.34l9.53 9.4h1.4v-18.18h-4.74zM710.4 359.27h4.46v13.98h4.58v-13.98h4.43v-4.14H710.4zM740.83 361.52c0-3.19-2.15-6.42-6.53-6.42-2.67-.03-5.28 0-7.98 0v18.13h4.74v-5.67h2.49l3.11 5.67h5.02v-.67l-3.55-5.75c1.79-1.22 2.67-3.21 2.69-5.28Zm-6.55 2.18h-3.29v-4.48h3.29c1.35 0 1.97 1.06 1.97 2.2s-.65 2.28-1.97 2.28M749.07 368.93v-2.95h6.06v-4.15h-6.06v-2.59h6.57v-4.11h-11.31v18.12h11.55v-4.32zM415.29 373.23v-7.21h-5.59v7.21h-4.71V355.2h4.71v6.52h5.59v-6.52H420v18.03zM262.4 300.61c-5.01-4.56-10.46-9.08-16.27-13.49.19 4.46.28 8.98.28 13.49s-.09 9.03-.28 13.49c5.81-4.41 11.26-8.93 16.27-13.49M197.21 244.53c2.46 1.15 4.97 2.36 7.46 3.61 5.57 2.79 11.16 5.8 16.61 8.94 3.89 2.25 7.76 4.59 11.54 7-1.04-8.21-2.43-16.09-4.15-23.49-.49-2.12-1-4.16-1.51-6.06-.52-1.97-1.1-3.93-1.7-5.88a77.2 77.2 0 0 0-28.79-5.56c-2.49 0-4.96.13-7.39.36-.55.19-1.1.36-1.68.49-1.02.22-1.97.64-2.89 1.13-1.36.71-2.24 1.82-2.66 3.29l-.51 1.8c-.23.8-.74 1.31-1.55 1.52-1.65.44-2.66 1.95-4.24 2.54-.45.17-.32.71-.3 1.12v.16c7.13 2.6 14.41 5.62 21.74 9.04ZM270.59 292.71c.92-.94 1.81-1.91 2.71-2.87-3.09-22.54-15.88-41.98-34.04-53.97.15.61.29 1.22.44 1.83 2.51 10.74 4.35 22.39 5.46 34.64 9.29 6.56 17.83 13.4 25.43 20.38ZM225.58 372.2c.55-1.82 1.09-3.66 1.58-5.51.51-1.91 1.02-3.95 1.51-6.06 1.72-7.39 3.11-15.27 4.15-23.49-3.78 2.4-7.65 4.75-11.54 7a317 317 0 0 1-24.07 12.55c-11.51 5.37-22.88 9.77-33.79 13.07-.24.07-.46.14-.69.21 10.25 5.02 21.77 7.84 33.95 7.84 10.22 0 19.97-2 28.9-5.6ZM273.26 311.34c-.88-.95-1.76-1.9-2.67-2.83-7.6 6.97-16.15 13.82-25.43 20.38-1.11 12.26-2.95 23.9-5.46 34.64-.11.48-.23.96-.34 1.44 18.03-11.95 30.75-31.24 33.91-53.62Z" class="st0"/><path d="M302.98 355.05c2.47-11.11-3.23-25.78-16.61-42.17-2.94-3.6-6.19-7.22-9.72-10.82-.47-.48-.95-.97-1.43-1.45.48-.48.96-.97 1.43-1.45 3.53-3.6 6.78-7.22 9.72-10.82 15.92-19.49 21.01-36.57 14.35-48.1s-24-15.66-48.84-11.62c-4.6.75-9.36 1.76-14.25 3.01 2.45 1.48 4.81 3.09 7.08 4.81 2.78-.61 5.51-1.15 8.18-1.58 21.74-3.53 37.17-.42 42.34 8.54 1.34 2.31 1.99 5.02 1.99 8.06 0 8.74-5.43 20.23-15.77 32.88-1.7 2.08-3.52 4.17-5.43 6.26a175 175 0 0 1-5.38 5.62c-8.21-7.7-17.61-15.28-27.92-22.49-1.1-12.74-2.98-24.66-5.51-35.46-.49-2.09-1-4.13-1.54-6.13-.17-.64-.35-1.29-.52-1.92-7.06-25.25-17.89-43.42-30.6-49.07-.77-4.21-4.45-7.4-8.89-7.4s-8.38 3.43-8.96 7.86c-12.28 6.12-22.75 24.01-29.63 48.61 2.51-1.4 5.09-2.67 7.76-3.79.85-2.7 1.76-5.32 2.71-7.83 5.82-15.35 13.09-26.14 20.7-30.64a9.03 9.03 0 0 0 7.42 3.88c3.23 0 6.06-1.7 7.66-4.25 7.85 4.25 15.37 15.21 21.36 31.01.95 2.52 1.86 5.13 2.71 7.83.77 2.42 1.49 4.91 2.18 7.46.54 2.01 1.04 4.06 1.53 6.14 2.11 9.07 3.72 18.83 4.81 29.07-5.13-3.38-10.44-6.67-15.92-9.83s-10.98-6.12-16.47-8.87c-2.47-1.24-4.94-2.43-7.4-3.58-11.4-5.32-22.68-9.68-33.45-12.94-2.05-.62-4.09-1.21-6.11-1.75-.65-.17-1.29-.34-1.93-.5-4.89-1.26-9.66-2.27-14.25-3.01-24.83-4.04-42.18.09-48.84 11.62-1.91 3.3-2.85 7.06-2.85 11.2 0 10.31 5.85 23 17.21 36.9 2.94 3.6 6.19 7.22 9.72 10.82.05-2.89.25-5.75.6-8.56-1.91-2.09-3.72-4.18-5.43-6.26-13.93-17.06-18.95-31.98-13.78-40.94s20.61-12.07 42.34-8.54c2.67.43 5.4.96 8.18 1.58 2.45.54 4.95 1.15 7.48 1.83 2.02.54 4.06 1.13 6.11 1.75 8.91 2.71 18.17 6.19 27.58 10.37 2.46 1.09 4.93 2.23 7.4 3.42 6.89 3.3 13.82 6.95 20.71 10.93s13.52 8.15 19.82 12.47c.59 7.62.89 15.45.89 23.4s-.3 15.79-.89 23.4a308 308 0 0 1-19.82 12.47 304 304 0 0 1-20.71 10.93c-2.47 1.19-4.94 2.32-7.4 3.42-9.41 4.18-18.68 7.66-27.58 10.37-2.06.63-4.1 1.21-6.11 1.75-2.53.68-5.02 1.29-7.48 1.83-2.78.62-5.51 1.15-8.18 1.58-15.42 2.51-27.64 1.65-35.3-2.24.23-.8.36-1.64.36-2.51 0-4.99-4.05-9.04-9.04-9.04h-.13c-1.35-9.02 4.06-21.62 15.55-35.69 1.7-2.08 3.52-4.17 5.43-6.26-.35-2.81-.55-5.67-.6-8.56-3.53 3.6-6.78 7.22-9.72 10.82-11.36 13.91-17.21 26.59-17.21 36.9 0 1.81.19 3.54.55 5.2a9.03 9.03 0 0 0-2.91 6.63c0 4.99 4.05 9.04 9.04 9.04 1.78 0 3.43-.52 4.82-1.4 8.94 4.98 22.69 6.2 40.17 3.36 4.6-.75 9.36-1.76 14.25-3.01.64-.16 1.28-.33 1.93-.5 2.01-.54 4.05-1.13 6.11-1.75 10.77-3.26 22.05-7.62 33.45-12.94 2.46-1.15 4.93-2.34 7.4-3.58 5.49-2.75 11-5.71 16.47-8.87 5.48-3.16 10.79-6.45 15.92-9.83-1.08 10.24-2.7 20.01-4.81 29.07-.48 2.08-.99 4.14-1.53 6.14-.68 2.56-1.41 5.04-2.18 7.46-.85 2.7-1.76 5.32-2.71 7.83-7.81 20.59-18.22 32.4-28.57 32.4s-20.76-11.81-28.57-32.4c-.95-2.52-1.86-5.13-2.71-7.83-2.66-1.13-5.25-2.4-7.76-3.79 8.58 30.68 22.73 50.35 39.03 50.35s30.46-19.67 39.03-50.35c.18-.64.35-1.28.52-1.92.54-2 1.05-4.05 1.54-6.14 2.53-10.79 4.4-22.72 5.51-35.46 10.3-7.21 19.71-14.79 27.92-22.49 1.87 1.87 3.66 3.74 5.38 5.62 1.91 2.09 3.72 4.18 5.43 6.26 10.34 12.66 15.77 24.14 15.77 32.88 0 .98-.09 1.91-.23 2.81-.08 0-.16-.01-.24-.01-4.99 0-9.04 4.05-9.04 9.04 0 .89.13 1.75.37 2.57-7.67 3.85-19.85 4.69-35.2 2.19-2.67-.43-5.4-.96-8.18-1.58a82 82 0 0 1-7.08 4.81c4.89 1.26 9.66 2.27 14.25 3.01 17.44 2.84 31.17 1.63 40.12-3.33 1.39.86 3.02 1.37 4.77 1.37 4.99 0 9.04-4.05 9.04-9.04 0-2.59-1.09-4.91-2.83-6.56Zm-59.63-35.75c.36-6.08.54-12.32.54-18.69s-.19-12.61-.54-18.69c8.32 6.06 15.97 12.34 22.76 18.69-6.8 6.36-14.44 12.64-22.76 18.69" class="st0"/><path d="M148.56 243.87c-.48-.94-1.04-1.8-1.67-2.62-16.86 14.19-27.58 35.44-27.58 59.19 0 24.97 11.84 47.16 30.2 61.3 1.63-.39 3.26-.79 4.88-1.22 1.92-.52 3.95-1.1 6.03-1.73 8.8-2.68 17.99-6.13 27.29-10.26 2.41-1.07 4.87-2.21 7.33-3.39a304 304 0 0 0 20.54-10.84c6.4-3.7 12.67-7.62 18.66-11.69a307 307 0 0 0 0-44 309 309 0 0 0-18.66-11.69 304 304 0 0 0-20.54-10.84c-2.45-1.18-4.92-2.32-7.33-3.39-9.3-4.13-18.49-7.59-27.29-10.26-1.14-.35-2.26-.67-3.35-.98-.08.14-.15.28-.25.42-.04.05-.09.13-.09.18.25 2.12-.08 4.4 1.6 6.16.26.27.56.38.92.41 1.77.14 3.35.11 4.37-1.83.8-1.52 1.89-1.83 3.19-1.49 1.09.29 1.38.81.92 1.83-.28.63-.7 1.19-1.04 1.79-.6 1.08-.52 1.7.31 2.63.62.69 1.42 1.1 2.26 1.43.49.19.96.4 1.37.72.51.39.8.86.5 1.52-.1.22-.16.46-.21.7-.15.75-.97 1.6-.4 2.22.24.26.5.5.79.72l.29.03c.19.02.41.1.53.24.16.18.34.32.53.44.28.09.58.14.89.16.09 0 .19 0 .28.01.18-.44.49-.76.92-.98.23-.12.3-.37.3-.6 0-.55.27-.86.77-1.01.78-.23 1.48-.65 2.25-.9.42-.14.74-.45 1.02-.78s.58-.59 1.04-.58c.15 0 .3-.05.44-.07.28-.05.47.1.62.31.14.2.1.42-.04.61-.1.14-.23.29-.37.38-.32.19-.45.44-.39.8.02.15-.08.4.07.43.2.04.12-.22.18-.35.17-.32.45-.47.77-.56.18-.06.37-.08.55-.13.17-.05.25-.15.14-.34-.17-.31-.15-.51.05-.67.18-.15.51-.14.73.05.4.36.82.67 1.37.8.28.06.51.29.68.53.12.16.25.22.45.22.62-.01 1.24 0 1.86 0 .34 0 .63.16.92.32.35.19.71.23 1.09.13.08-.02.18-.04.23-.1.37-.38.85-.41 1.33-.44.41-.03.83-.02 1.24-.03.3 0 .57.09.85.17.18.05.24.19.24.37 0 .16-.07.27-.22.32-.06.02-.16 0-.14.1.02.08.11.1.18.11.28.01.56.06.84.11.45.08.79.35 1.08.68.13.15.15.4.2.61.05.22.14.35.38.31.66-.1 1.13.26 1.59.65.52.44.93.96 1.07 1.65.02.12.09.17.21.19.3.05.55.2.75.42.31.35.67.57 1.16.55.05 0 .1 0 .14.02.56.26 1.16.15 1.75.21 1.06.1 2.09.31 2.99.91.48.32.87.77 1.33 1.14.86.69 1.3 1.58 1.41 2.66.02.22.09.44.15.66.07.25.22.39.48.46.71.18.94.82.55 1.44-.02.04-.05.08-.05.13 0 .29-.18.42-.43.47-.26.05-.34.2-.31.44.01.08 0 .17.09.22.1.05.18-.01.25-.07s.14-.13.22-.17c.22-.11.52-.04.61.13.1.18.04.33-.23.52.09.04.15 0 .21-.02.38-.12.77-.18 1.17-.15.6.04.82.43.58.98-.11.24-.29.46-.37.75.17-.04.23-.15.3-.26.27-.41.71-.62 1.17-.48 1.05.31 2.08.72 3.1 1.12.72.28 1.02.82.93 1.58-.01.09-.08.22.03.29.11.06.21-.04.31-.1.19-.11.37-.22.55-.34.32-.2.61-.15.88.08.22.19.47.31.76.35.53.08 1.03.27 1.58.23 1.36-.1 2.44.42 3.33 1.44.45.52.96.99 1.51 1.39.52.38 1.07.72 1.71.91.66.2.96.72 1.08 1.36.04.18.05.37.11.55v.06c-.07.13-.04.28-.04.42 0 .69.02 1.38-.12 2.05-.13.61-.34 1.19-.78 1.67-.31.34-.51.74-.74 1.13-.28.49-.64.93-1.04 1.33-.31.31-.53.68-.74 1.06-.3.56-.68 1.06-1.1 1.53-.16.18-.33.29-.57.32-.26.04-.39.22-.44.45-.04.18-.07.37-.07.56.04.77-.11 1.5-.29 2.25-.22.95-.45 1.9-.64 2.86-.07.38-.32.68-.56.97-.15.18-.28.35-.33.58-.23.92-.62 1.76-1.22 2.49-.4.49-.58 1.1-.94 1.6-.24.33-.4.7-.5 1.1-.06.27-.24.46-.47.61-.25.15-.43.34-.55.62-.18.45-.54.6-1.04.44-.41-.13-.8-.16-1.21 0-.21.08-.45.07-.66-.01-.19-.08-.34-.04-.49.1-.27.25-.59.38-.95.48-.5.13-.99.3-1.48.46-.58.19-.92.71-1.38 1.06-.25.19-.49.4-.77.52-.61.26-.76.78-.82 1.34-.04.37-.06.75-.19 1.11-.16.45-.16.94-.34 1.4-.08.22-.21.4-.39.55-.4.34-.82.67-1.18 1.05-.43.46-.67 1.04-.9 1.62-.3.76-.88 1.28-1.5 1.75-.19.15-.47 0-.52-.23-.02-.09-.02-.18-.03-.33-.33.32-.54.65-.62 1.07-.13.71-.42 1.31-.99 1.78-.62.51-1.21 1.06-1.8 1.61-.39.36-.83.39-1.32.29-.09-.02-.19-.07-.27-.06-.92.17-1.56-.53-2.35-.74-.16-.04-.29-.21-.43-.31-.04-.03-.1-.08-.15-.04-.06.05-.03.12 0 .18.08.13.2.22.35.27.55.22.77.7.59 1.25-.15.44-.14.44.3.57.37.1.54.52.32.86-.14.21-.33.39-.48.59-.33.43-.63.89-.98 1.31-.34.41-.73.72-1.26.84-1.01.23-2.01.48-3.05.52-.26.01-.5-.02-.71-.2-.17-.14-.19.02-.19.13-.03.57-.17 1.11-.28 1.67-.19.92-.38 1.11-1.3 1.22-.47.06-.88-.04-1.19-.43-.08-.1-.19-.22-.33-.15s-.12.22-.11.35c0 .07.01.13.02.2.04.48.2.65.68.69.33.03.57.14.67.49.08.28.05.52-.15.73-.22.23-.48.34-.79.23-.24-.09-.34-.06-.49.2-.35.58-.43 1.21-.53 1.86-.08.54-.38.78-.93.82-.46.04-.78.35-1.04.71-.13.17-.24.36-.26.59-.04.42.3.75.71.69.48-.07.78.16.78.64 0 .75-.25 1.35-.98 1.7-.33.16-.58.44-.84.71-.08.09-.1.2-.1.32-.03.54-.35.84-.8 1.07-.32.16-.63.33-.76.72-.07.21-.08.4 0 .6.13.29.26.59.3.91.02.16 0 .28-.06.37l-.22-.2-.41-.29c-.37-.19-.69-.24-1.24-.25h-.7c.05-.21.05-.43 0-.64-.04-.18-.12-.55-.39-.85-.1-.11-.22-.2-.36-.25-.04-.14-.11-.27-.19-.39v-.07c.14-.12.24-.26.32-.39l.14-.36.31-.67c.02-.08.04-.17.05-.26.04-.23.03-.46.02-.71v-.04c.03-.04.06-.08.08-.13l.07-.11c.12-.2.25-.41.35-.64s.13-.45.15-.59l.03-.17c.04-.16.11-.42.03-.74v-.05c.04-.15.05-.32.03-.5.17-.17.28-.37.31-.59.01-.09.02-.17 0-.26.11-.17.18-.37.2-.58l.05-.7-.49-.42-.19-.91a1.2 1.2 0 0 0-.36-.73l-.02-.02c.33-.28.48-.68.39-1.06l-.07-.27c-.07-.28-.11-.46-.07-.59l.13-.57-.08-.09c.1-.22.14-.45.1-.67.08-.19.11-.39.09-.59l.02-.05c.05-.11.09-.23.13-.34.02-.05.03-.1.04-.16.43-.27.57-.84.54-1.2l-.02-.17c-.04-.44-.09-.89-.19-1.35.02-.11.04-.27.01-.44l.03-.03c.18-.18.4-.4.6-.8.06-.11.17-.28.23-.51.09-.35.04-.67 0-.88 0-.02 0-.05-.01-.07l.18-.27-.04-.25v-.04c.6-.56.5-1.26.48-1.52l.03-.23c.02-.14.09-.55-.19-.91.06-.24.02-.49-.11-.7l-.3-.96-.15-.4c.09-.28.21-.52.35-.71.31-.41.43-.84.4-1.34 0-.11-.02-.21-.03-.32-.02-.14-.02-.23-.05-.21.29-.31.31-.69.29-.84.02-.04.14-.18.18-.23l.17-.2c.11-.14.21-.28.32-.46l.69-.6c.7-.66.6-1.27.35-1.72.07-.25.06-.48.05-.61a2 2 0 0 0-.13-.47l.15-.15.03-.4v-.18c.17-.1.36-.17.54-.23.45-.15.76-.54.9-.86.1-.22.17-.45.23-.67l.09-.29c.31-.9-.12-1.36-.41-1.56-.2-.14-.42-.19-.61-.19-.02-.1-.03-.2-.06-.32l-.11-.65c-.02-.15-.04-.31-.07-.47 0-.24-.06-.44-.15-.62l.04-.53-.15-.42v-.06c0-.07-.01-.14-.03-.26.23-.55.05-1.1-.51-1.48 0 0-.02-.05-.01-.25.02-.21.07-.82-.38-1.27-.19-.48-.75-1.05-1.43-.95l-.89.14-.23.37c-.04.06-.07.13-.09.2-.14.01-.27.04-.4.1l-.04.02c-.78-.86-1.71-1.49-2.76-1.97-.58-.27-1.15-.56-1.76-.75-.29-.09-.47-.31-.6-.57a.98.98 0 0 0-.38-.4c-.64-.39-.94-1.01-1.09-1.7-.08-.38-.13-.75-.36-1.08-.47-.66-.73-1.42-1.04-2.16-.41-.94-.84-1.86-1.28-2.79-.37-.78-.78-1.54-1.21-2.29-.4-.7-.89-1.4-1.62-1.85-.23-.14-.45-.3-.67-.46-.36-.27-.47-.61-.29-1.02.1-.24.05-.46-.06-.65-.51-.9-.24-1.39.4-2.05.2-.21.42-.41.68-.55.07-.04.15-.09.2-.16.09-.12.29-.25.23-.39-.07-.16-.25 0-.37.02-.5.04-.86-.3-.98-.92-.1-.5-.09-.99.04-1.48.06-.23.19-.41.37-.55.2-.16.31-.35.32-.62.03-.58.21-1.12.53-1.61.22-.35.59-.52.9-.76.4-.3.71-.63.71-1.18 0-.43.23-.65.66-.7.3-.03.49-.23.63-.47.51-.91.66-1.88.53-2.91-.04-.32-.07-.66.1-.97a.5.5 0 0 0 .04-.36c-.09-.48-.22-.95-.56-1.33-.37-.42-.72-.86-.68-1.46-1.08-.53-2.02-1.38-2.93-2.36-.73-.78-1.06-1.67-1.43-2.6-.32-.78-.54-1.68-1.76-1.39-.36.09-.69-.26-1-.48-1.44-1.02-2.91-2.01-4.31-3.08-.62-.48-1.1-.49-1.61.07-.58.65-1.03.49-1.75.05-2.12-1.29-4.34-2.43-6.53-3.61-1.79-.96-1.86-1.08-1.43-3.08.06-.29.04-.51-.1-.78Zm34.73 102.45c.01-.27 0-.54 0-.82.13.1.25.21.4.28.31.16.64.27.96.4.23.09.41.21.38.49-.04.28-.26.48-.53.49-.3 0-.6-.02-.9-.09-.06-.02-.12-.02-.15 0-.03 0-.06-.02-.09-.03h-.03s-.06-.02-.09-.02c.02-.23.04-.47.05-.7m-.54 1.61c.07-.02.17 0 .25.01.36.04.41.13.24.43-.18-.04-.35-.08-.51-.14-.07-.03-.13-.1-.19-.14.07-.06.13-.13.22-.16Zm-6.79-9.28s.06-.1.11-.13c.01 0 .09.03.1.06.06.18.11.37.16.56-.28-.1-.4-.26-.37-.49m.83 2.99c.11 0 .2-.03.22 0 .11.14.19.29.28.43-.04.03-.09.05-.13.08-.11-.15-.22-.31-.37-.51m.27 1.11c.11.39.09.41-.27.36.1-.14.19-.25.27-.36m-.29-1.87c0-.15.02-.31.04-.46-.03 0-.05-.02-.08-.03-.07.08-.14.17-.21.26-.16-.28-.13-.42.13-.54-.02-.19-.04-.38-.06-.6.1-.01.21-.03.37-.05.02.49.05.98.05 1.46 0 .07-.1.13-.16.2-.03-.08-.08-.16-.08-.24m-.24-1.59s-.02-.05-.03-.08c.09-.1.18-.19.31-.34.05.19.09.3.12.41h-.39Zm-.1-.72c-.04-.09-.08-.19-.12-.28.05-.02.09-.04.14-.06l.15.27c-.05.02-.11.05-.16.07Zm-.38 1.05c.1.06.26.1.28.18.05.17-.03.31-.24.37-.01-.19-.03-.34-.04-.55m.3 2.65q-.09-.21-.18-.45.31-.02.18.45m.24.63h.08v.51c-.24-.09-.25-.25-.09-.51Zm-.15-1.25s-.15-.01-.2-.06c-.03-.03-.01-.12 0-.17.04-.1.09-.19.19-.38.11.15.24.25.26.38.01.06-.16.17-.26.23Zm.31 2.16c.05-.06.19-.1.27-.07s.12.15.17.23c-.19.04-.3.07-.47.1 0-.08-.02-.2.03-.25Zm1.02 1.62c-.11 0-.28.08-.33.04-.16-.15-.29-.34-.42-.51a1 1 0 0 1 .1-.08c.09.05.17.11.26.15.18.07.35.16.54.19.25.04.37.17.3.42-.08-.05-.14-.11-.21-.14a.7.7 0 0 0-.24-.06Zm-.1-1.48s-.07.05-.1.08l-.3-.36c.04-.03.07-.06.11-.08l.3.36Zm-.26-.76s.06-.03.09-.04c.19.08.24.22.23.4-.04.02-.08.03-.12.05-.07-.13-.14-.27-.21-.4Zm1.52 2.58c-.16-.09-.32-.18-.47-.26.5-.03.1-.43.32-.57.16.07.35.18.4-.13 0-.04.1-.08.15-.08.18 0 .35.03.55.04 0 .36-.32.42-.54.57l-.43.31c0 .04.01.07.02.11Zm-.16-1.59c-.05.14-.08.29-.13.44-.18.04-.41.09-.62.14-.03-.21-.06-.47-.11-.78.18 0 .4.02.66.03.01-.04.04-.12.06-.21.19.09.21.16.13.39Zm-.19.57c-.19.49-.04.61-.67.35.24-.12.44-.23.67-.35m.17 1.67s-.04-.01-.06-.02c-.05.09-.09.18-.14.26-.03.04-.08.06-.13.08-.02-.05-.04-.1-.06-.16 0-.01.01-.03.02-.05.09-.28.07-.31-.23-.28l-.06-.07c.14-.1.27-.2.41-.3.3.03.6.11.66.43.02.11-.18.25-.33.44-.04-.17-.06-.25-.08-.33m.43.66c-.03-.11-.07-.22-.1-.33.06.01.17.01.18.05.04.08.03.18.04.27-.04 0-.08.01-.12.02Zm.07-.65c.15.01.36 0 .36.04.03.16 0 .33 0 .49h-.11c-.07-.15-.14-.3-.25-.53m1.35 1.8c-.11 0-.23-.12-.34-.21-.03-.02-.02-.13 0-.14a.28.28 0 0 1 .2-.02c.13.03.26.07.47.14-.12.09-.23.23-.34.23Zm1.85.07c-.14.05-.27.11-.43.17-.05-.14-.14-.27-.36-.16.03.11.05.21.08.36-.24-.2-.43-.37-.66-.55.38-.27.85-.06 1.25-.25.05.19.08.32.11.44Zm-5.64-16.58c.16-.27.16-.55.14-.84-.01-.29.04-.57.07-.84.52-.1.65.19.72.58-.03.02-.08.07-.14.11-.26.17-.26.28-.07.51.07.08.07.25.05.36-.03.17-.09.35-.19.49-.04.06-.23.05-.35.04-.26-.03-.36-.19-.23-.4Zm1.01 1.9s.02-.01.02-.02c.09-.14.2-.24.37-.13.06.04.11.2.08.23-.09.1-.22.16-.32.22-.13-.07-.2-.1-.27-.14.04-.06.09-.11.13-.17Zm-.68-.87c-.02-.05-.04-.11-.06-.16.11-.04.21-.07.32-.11l.06.15c-.11.04-.21.08-.32.12m.19.61s-.08.09-.12.13c-.05-.05-.13-.1-.14-.16 0-.06.05-.13.12-.27.08.15.13.22.14.3m.19.85c-.05.19-.05.41-.12.44-.19.07-.3-.08-.35-.27.13-.05.25-.09.47-.17m-1.18-.54c.16.02.34.07.34-.18 0-.01.17-.05.18-.04.06.1.09.21.14.31-.14.04-.28.12-.42.12-.09 0-.18-.09-.27-.14l.03-.08Zm-.23 2.41c.12-.1.26-.16.37-.3-.06.01-.12.02-.2.04a6 6 0 0 0-.04-.35c.17.02.32.02.46.07.23.07.29.24.2.46-.03.07-.07.16-.06.23 0 .06.08.12.14.15.03.01.1-.05.14-.1.06-.06.11-.13.16-.2.03.01.06.03.09.04-.03.17-.05.34-.08.51.03 0 .07.01.1.02 0-.32.35-.52.23-.92-.07-.24.02-.54.1-.8.02-.09.22-.12.39-.21-.14-.04-.24-.07-.33-.1.02-.1.04-.21.07-.33.38 0 .6-.24.66-.55.07-.35-.35-.35-.53-.52.04-.16.09-.33.12-.49.02-.11.02-.22.02-.34 0-.14-.04-.29 0-.41.12-.36.15-.36.67-.25-.37-.32-.55-.7-.37-1.2.1.08.18.14.27.21.02-.01.04-.03.06-.04-.11-.17-.23-.33-.34-.5-.03.01-.06.02-.1.03.02-.06.05-.13.07-.19.02-.08.05-.18.01-.24-.04-.07-.15-.09-.24-.13-.04.07-.07.15-.12.22-.04.05-.1.15-.13.14-.16-.03-.37-.05-.46-.15-.17-.2-.29-.46-.4-.7-.04-.09 0-.21.02-.32.09-.41.19-.83.29-1.24.01-.04.02-.09.05-.12.37-.38.44-.81.23-1.29-.15-.35-.24-.71-.14-1.1.02-.09-.04-.21-.07-.31-.08-.25-.17-.5-.24-.75-.04-.14.03-.22.19-.17.28.08.34-.07.4-.29.05-.22.16-.42.23-.63.06-.18.09-.37.14-.55.03-.11.09-.21.12-.32.06-.17.08-.36.17-.52.33-.6.62-1.2.64-1.9 0-.11.04-.24.1-.33.15-.24.28-.47.19-.77-.01-.04.01-.11.04-.15.28-.38.25-.78.09-1.2a.6.6 0 0 1-.03-.19c-.01-.45 0-.91-.04-1.36-.02-.33-.09-.66-.14-1.01.1 0 .17 0 .22-.03.08-.05.22-.12.21-.18-.04-.43.23-.88-.13-1.3-.07-.09-.04-.35.04-.46.27-.34.28-.75.41-1.12.04-.12.09-.24.12-.36.05-.17.09-.34.13-.51v-.08c.07-.35.17-.69.22-1.05.04-.27.05-.54.04-.81-.01-.26.02-.48.22-.67.16-.14.23-.34.09-.52-.3-.38-.12-.79-.11-1.19 0-.23.07-.47.15-.69.04-.11.15-.2.26-.36h-.33v-.6c.56-.03.35-.49.44-.78.1-.3.07-.65.22-.91.26-.44.12-.84.06-1.27-.02-.12-.04-.25-.02-.36.09-.43-.08-.86-.21-1.31-.12-.43-.04-.78-.07-1.23-.01-.14-.07-.62-.09-.73.24-.1.68.09.88-.03.31-.17-.07-.44.06-.65.15-.02.29-.05.44-.07.14-.02.4.23.43.4.01.07.02.17.07.19.32.16.25.49.23.69-.03.44.07.79.45 1.04.18.12.23.21.09.42-.08.12 0 .34 0 .56-.08.03-.21.08-.35.13.18.24-.1.66.42.7-.07.11-.13.17-.15.24-.01.06.03.19.06.19.35.04.26.31.29.51.04.23.07.46.11.7.07.41.15.83.2 1.24.03.27.15.38.43.31h.03c.16 0 .37-.08.48 0 .2.14.08.36.02.55-.08.27-.14.55-.26.81-.06.14-.2.31-.34.35-.43.14-.82.31-1.15.63-.15.14-.25.27-.07.47.04.04.04.19 0 .22-.27.21-.21.46-.14.73.04.13.11.26.13.39.01.1 0 .25-.07.31-.19.16-.15.29-.01.44.29.32.29.47-.03.77q-.09.09-.21.18c-.06-.06-.11-.11-.22-.23-.1.22-.17.42-.28.59-.12.21-.25.42-.4.61-.25.31-.58.58-.55 1.04 0 .06 0 .14-.04.18-.35.37-.19.81-.17 1.23.02.27-.04.48-.22.72-.29.38-.47.84-.59 1.32-.06.23.07.34.19.44.13.4.25.8.38 1.2.02.06.09.14.07.17-.15.3-.04.54.17.77.05.05 0 .18 0 .27-.01.15-.06.31-.04.46.05.31.03.56-.28.77-.14.1-.14.38-.2.57-.01.03.02.09 0 .11-.31.37.01.79-.09 1.18-.04.14-.13.26-.2.39-.14.27-.37.46-.57.68-.13.15-.21.35-.12.59.05.15-.07.31-.02.51.12.48.16.97.21 1.46.01.1-.06.3-.12.31-.41.08-.34.41-.42.66-.05.15-.11.3-.17.45-.02.07-.08.15-.06.2.09.19.03.31-.14.41-.04.02-.04.17 0 .21.13.11.13.21.05.34-.13.2-.27.4-.08.64.02.02.02.07 0 .11-.15.46.03.89.13 1.33.01.05-.08.13-.14.17-.05.03-.13.02-.19.03-.02 0-.04.03 0 .07-.04.18-.11.36-.11.54 0 .17.05.34.11.5.03.09.13.15.21.23.15.15.11.28-.08.39.27.18.3.42.26.69-.06.48-.05.48.43.61.04.01.08.04.14.07-.01.09-.03.18-.04.27-.01.18-.12.22-.23.22-.15 0-.16-.03-.32-.02v.06c.13.11.09.13.2.26.17.22.24.24.01.38-.26.17-.32.34-.2.61.02.06.05.15.03.18-.15.2-.05.39 0 .59.03.11-.03.25-.05.37-.03.18-.05.36-.12.53-.09.21-.23.41-.35.61-.09.14-.21.26-.27.41-.03.08.04.2.05.31 0 .17.02.35 0 .52s-.07.34-.14.49c-.11.22-.21.46-.39.62-.31.28-.28.66-.37 1-.02.06.04.18.1.21.25.13.23.33.21.54 0 .13.03.26.05.39.08 0 .1 0 .13-.01.13-.04.33-.14.37-.1.1.11.14.27.17.41.02.09.01.21-.03.3-.16.37.07.64.26.9.07.1.25.16.39.17.36.03.73.02 1.09.02.44 0 .59.04 1.11.37.18.14.09.7.31.54.16-.12.32 0 .32.25v1.34c-.02.41-.07.82-.09 1.23-.01.17-.08.26-.27.23-.81-.11-1.62-.21-2.43-.32.05-.09.1-.18.15-.28.37.03.74.07 1.17.1-.14-.14-.24-.23-.35-.34.32-.11.45-.05.65.31.04-.05.07-.1.1-.14.27.13.55.26.82.38l.06-.09c-.04-.04-.08-.08-.12-.11-.28-.14-.58-.24-.84-.41-.13-.08-.22-.26-.26-.42-.01-.06.17-.17.27-.25.12-.09.24-.18.35-.28.04-.04.04-.11.06-.16a.6.6 0 0 0-.18-.04c-.05 0-.1.05-.16.06-.16.03-.37.12-.46.06-.17-.12-.3-.32-.23-.59.11.02.21.03.42.06-.12-.17-.2-.27-.34-.46.39.14.59 0 .75-.37-.18.12-.38.19-.6.24-.25.05-.38.17-.37.43 0 .27 0 .54-.04.8-.03.15-.1.35-.22.42-.09.06-.31-.03-.44-.09-.16-.08-.3-.2-.43-.32-.07-.08-.1-.2-.15-.3.03-.01.05-.03.08-.04.11.1.21.19.35.31.02-.08.06-.14.04-.19-.05-.16-.02-.25.18-.29.18-.04.34-.38.28-.53a.524.524 0 0 0-.61-.32c-.15.03-.32.05-.47.03-.22-.03-.16-.18-.1-.31.13-.26.03-.76-.18-.94-.23.13-.46.27-.68.4l-.25-.5.18-.18c-.09-.03-.18-.04-.27-.08-.08-.04-.23-.11-.22-.15.04-.25-.11-.32-.32-.35-.02 0-.05-.03-.07-.04l.03-.1c.15.01.31.05.45.03.19-.02.31-.12.23-.34-.35.1-.34.1-.37-.26 0-.06-.06-.12-.12-.16-.1-.07-.21-.11-.4-.21.2-.12.34-.21.48-.29.07-.04.15-.08.22-.12-.07-.06-.14-.11-.25-.2.08-.09.17-.21.27-.33-.07-.1-.14-.22-.23-.35-.04.03-.1.07-.19.14-.04-.29-.12-.55-.11-.81 0-.12.17-.23.3-.34.05-.2-.09-.29-.29-.29-.21 0-.23-.11-.22-.27 0-.17.08-.26.26-.26.05 0 .1 0 .14.02.33.19.66.38 1.04.55-.08-.1-.14-.23-.24-.31-.28-.23-.28-.3-.02-.55.18-.18.35-.38.49-.59.09-.13.07-.29-.15-.41.13.43-.15.65-.4.9-.22.22-.88.3-1.14.13-.04-.03-.09-.09-.08-.12.01-.05.06-.11.12-.13.08-.03.18-.03.26-.04v-.07c-.09 0-.18-.02-.29-.03-.08-.3.26-.21.33-.32-.03-.14-.03-.28-.09-.39-.04-.07-.18-.16-.25-.15-.28.07-.48-.03-.64-.24-.12.04-.22.08-.35.12.05.1.1.19.17.33-.1 0-.22 0-.24-.03-.07-.14-.19-.33-.14-.43.09-.17.28-.31.45-.44Zm3.66 10.73c.05-.08.11-.17.16-.25.05.03.12.05.15.1.07.1.12.21.18.32-.02.01-.05.02-.07.03-.13-.06-.25-.12-.42-.2m.79-.62s.05-.1.08-.15c.05.03.13.06.14.1 0 .12-.01.24-.02.35h-.05c-.05-.1-.11-.2-.14-.31Z" class="st0"/></svg>